<?xml version="1.0" encoding="UTF-8" standalone="no"?>
<!-- Created with Inkscape (http://www.inkscape.org/) -->

<svg
   width="135.33141mm"
   height="135.62585mm"
   viewBox="0 0 135.33141 135.62585"
   version="1.1"
   id="svg5"
   xml:space="preserve"
   inkscape:version="1.2.2 (1:1.2.2+202212051552+b0a8486541)"
   sodipodi:docname="favicon-white.svg"
   xmlns:inkscape="http://www.inkscape.org/namespaces/inkscape"
   xmlns:sodipodi="http://sodipodi.sourceforge.net/DTD/sodipodi-0.dtd"
   xmlns="http://www.w3.org/2000/svg"
   xmlns:svg="http://www.w3.org/2000/svg"><sodipodi:namedview
     id="namedview7"
     pagecolor="#ffffff"
     bordercolor="#999999"
     borderopacity="1"
     inkscape:showpageshadow="0"
     inkscape:pageopacity="0"
     inkscape:pagecheckerboard="0"
     inkscape:deskcolor="#d1d1d1"
     inkscape:document-units="mm"
     showgrid="false"
     inkscape:zoom="1.0708779"
     inkscape:cx="210.10799"
     inkscape:cy="283.41233"
     inkscape:window-width="1920"
     inkscape:window-height="1016"
     inkscape:window-x="0"
     inkscape:window-y="27"
     inkscape:window-maximized="1"
     inkscape:current-layer="layer1" /><defs
     id="defs2" /><g
     inkscape:label="Capa 1"
     inkscape:groupmode="layer"
     id="layer1"
     transform="translate(-190.26104,-65.168895)"><path
       style="fill:#ffffff;stroke:#ffffff;stroke-width:0.349411"
       d="m 190.45551,98.530898 c 0.0223,-4.241268 0.44909,-8.106419 1.18172,-10.702366 1.65442,-5.862121 6.52673,-12.874762 11.13119,-16.020955 l 1.32528,-0.905555 0.51691,0.738 c 0.28431,0.405899 0.74927,0.970349 1.03325,1.254332 0.28399,0.283984 0.51634,0.604386 0.51634,0.712004 0,0.107618 0.22562,0.472629 0.50138,0.811134 0.27576,0.338506 2.12152,2.816759 4.1017,5.50723 1.98018,2.690471 3.72,4.944176 3.86627,5.008235 0.14627,0.06406 0.26594,0.258806 0.26594,0.432771 0,0.173965 0.22512,0.593259 0.50026,0.931764 0.7408,0.911412 10.05003,13.358891 10.97835,14.679288 l 0.79839,1.13559 h -18.36791 -18.36791 z"
       id="path271" /><path
       style="fill:#ffffff;stroke:#ffffff;stroke-width:0.349411"
       d="m 239.40632,96.781489 c -2.18143,-2.929398 -4.24955,-5.719267 -4.59583,-6.199708 -3.10032,-4.301543 -12.10954,-16.272702 -12.31526,-16.364118 -0.14415,-0.06406 -0.26209,-0.33922 -0.26209,-0.61147 0,-0.272251 -0.11793,-0.498457 -0.26206,-0.502682 -0.14413,-0.0042 -0.73377,-0.711441 -1.3103,-1.571592 -0.57653,-0.860151 -1.16616,-1.564254 -1.31029,-1.564672 -0.14413,-4.23e-4 -0.26206,-0.174678 -0.26206,-0.387243 0,-0.212565 -0.4717,-0.98206 -1.04823,-1.709988 -0.57653,-0.727928 -1.04824,-1.47435 -1.04824,-1.658716 0,-0.605738 5.11741,-0.787166 22.20298,-0.787166 13.16179,0 16.89351,0.09573 17.02582,0.436765 0.15382,0.396503 6.93604,9.720103 8.13636,11.18517 0.27734,0.338506 0.50425,0.7578 0.50425,0.931765 0,0.173965 0.12144,0.368711 0.26986,0.43277 0.14843,0.06406 1.91732,2.375778 3.93089,5.137154 2.01356,2.761375 5.32174,7.242581 7.35152,9.958235 3.92718,5.25422 5.91832,8.082737 5.91832,8.407277 0,0.1095 -8.76587,0.19804 -19.4797,0.19675 l -19.47971,-0.002 z"
       id="path273" /><path
       style="fill:#ffffff;stroke:#ffffff;stroke-width:0.349411"
       d="m 297.7035,100.62737 c -0.58036,-0.816751 -1.33867,-1.799472 -1.68514,-2.183824 -0.34647,-0.384355 -1.16289,-1.485 -1.81427,-2.445882 -1.36819,-2.018308 -9.12556,-12.532367 -10.14052,-13.744095 -0.37586,-0.448723 -0.68337,-0.879323 -0.68337,-0.956889 0,-0.07757 -0.22414,-0.417988 -0.49808,-0.756493 -0.27393,-0.338506 -2.01042,-2.659524 -3.85885,-5.157818 -1.84844,-2.498294 -3.55043,-4.790633 -3.78223,-5.094086 -0.23179,-0.303454 -0.57867,-0.810405 -0.77084,-1.126558 -0.19218,-0.316152 -0.88242,-1.303465 -1.53387,-2.194027 l -1.18446,-1.619205 13.23916,0.185574 c 13.51364,0.189421 15.38422,0.359483 19.48682,1.771638 2.62409,0.903235 5.42443,2.303633 7.62147,3.811358 2.18888,1.502118 6.22205,5.287362 6.22205,5.839562 0,0.19113 0.14375,0.347509 0.31945,0.347509 0.64823,0 5.26267,8.31767 5.27622,9.510555 0.003,0.246224 0.25458,1.155239 0.55951,2.020033 0.381,1.080499 0.61402,3.403141 0.74493,7.425001 l 0.19049,5.852647 H 312.08533 298.7587 Z"
       id="path275" /><path
       style="fill:#ffffff;stroke:#ffffff;stroke-width:0.349411"
       d="m 213.87003,199.74042 c -5.54402,-1.41463 -10.06983,-3.94137 -14.01451,-7.82422 -5.26728,-5.18473 -8.24673,-11.04341 -9.06498,-17.82501 -0.17391,-1.44132 -0.32467,-15.31734 -0.33503,-30.83559 l -0.0188,-28.215 h 67.45252 67.45252 l -0.11441,30.48618 -0.11441,30.48618 -1.09933,3.17026 c -3.78259,10.9082 -12.05779,18.26799 -23.53451,20.93108 -1.9886,0.46144 -7.6789,0.52787 -42.80294,0.49974 l -40.50944,-0.0324 z m 30.33303,-22.5905 c 1.46498,-0.81599 2.92589,-1.64147 3.24645,-1.83441 0.70508,-0.42435 1.70275,-0.97433 5.35716,-2.95322 1.53741,-0.83251 2.98464,-1.66216 3.21607,-1.84366 0.23143,-0.1815 0.93899,-0.60042 1.57235,-0.93093 2.18201,-1.13863 6.04635,-3.30378 7.34669,-4.11626 0.71685,-0.4479 1.37603,-0.81437 1.46485,-0.81437 0.14057,0 7.15736,-3.98708 8.58768,-4.87969 0.28827,-0.17989 1.23168,-0.67394 2.09647,-1.09789 2.36186,-1.15783 4.56248,-3.06994 5.14916,-4.47407 1.1439,-2.73772 -0.1834,-7.0778 -2.47555,-8.09472 -0.41351,-0.18345 -1.38078,-0.69353 -2.14949,-1.13352 -0.7687,-0.43998 -2.10521,-1.20316 -2.97,-1.69596 -0.86479,-0.49279 -3.30194,-1.88467 -5.41588,-3.09305 -2.11394,-1.20838 -4.70832,-2.67134 -5.76529,-3.25102 -1.05697,-0.57969 -2.39347,-1.33961 -2.97,-1.68873 -0.57653,-0.34911 -1.28409,-0.74387 -1.57236,-0.87725 -0.28826,-0.13337 -1.70338,-0.93823 -3.1447,-1.78858 -1.44133,-0.85034 -2.93506,-1.68861 -3.31941,-1.86282 -0.38436,-0.17421 -1.32777,-0.67692 -2.09648,-1.11715 -1.91637,-1.09747 -5.23697,-2.97194 -7.33764,-4.14208 -3.19264,-1.77839 -6.47007,-1.17126 -8.72654,1.61658 l -1.05699,1.30589 v 23.11615 23.11615 l 0.79966,1.28601 c 1.20034,1.93035 2.64106,2.6691 5.27203,2.70328 1.99715,0.0259 2.50432,-0.12488 4.89176,-1.45468 z"
       id="path346" /></g></svg>
