<?xml version="1.0" encoding="UTF-8" standalone="no"?>
<!-- Created with Inkscape (http://www.inkscape.org/) -->

<svg
   width="59.750107mm"
   height="56.422092mm"
   viewBox="0 0 59.750109 56.422094"
   version="1.1"
   id="svg5"
   xml:space="preserve"
   inkscape:version="1.2.2 (1:1.2.2+202212051552+b0a8486541)"
   sodipodi:docname="favicon-white.svg"
   xmlns:inkscape="http://www.inkscape.org/namespaces/inkscape"
   xmlns:sodipodi="http://sodipodi.sourceforge.net/DTD/sodipodi-0.dtd"
   xmlns="http://www.w3.org/2000/svg"
   xmlns:svg="http://www.w3.org/2000/svg"><sodipodi:namedview
     id="namedview7"
     pagecolor="#ffffff"
     bordercolor="#999999"
     borderopacity="1"
     inkscape:showpageshadow="0"
     inkscape:pageopacity="0"
     inkscape:pagecheckerboard="0"
     inkscape:deskcolor="#d1d1d1"
     inkscape:document-units="mm"
     showgrid="false"
     inkscape:zoom="1.5144501"
     inkscape:cx="391.56128"
     inkscape:cy="144.27679"
     inkscape:window-width="1920"
     inkscape:window-height="1016"
     inkscape:window-x="0"
     inkscape:window-y="27"
     inkscape:window-maximized="1"
     inkscape:current-layer="layer1" /><defs
     id="defs2" /><g
     inkscape:label="Capa 1"
     inkscape:groupmode="layer"
     id="layer1"
     transform="translate(38.676353,-61.063954)"><path
       style="fill:#13c6b3;fill-opacity:1;stroke:#13c6b3;stroke-width:0.349411;stroke-opacity:1"
       d="m -17.289122,109.93521 c -5.4638,-0.72192 -9.779872,-2.9135 -14.045763,-7.13205 -2.324686,-2.29889 -3.128309,-3.398399 -4.46919,-6.114704 -3.600033,-7.292816 -3.600033,-14.704941 0,-21.997756 1.340881,-2.716307 2.144504,-3.815817 4.46919,-6.114706 3.175232,-3.139997 5.614958,-4.718208 9.245677,-5.980848 10.212451,-3.55154 21.60337714,0.04126 27.8398867,8.780943 6.7371563,9.441278 6.1111553,21.710496 -1.5615444,30.605241 -5.03601558,5.83811 -13.5706668,8.99868 -21.4782563,7.95388 z m 5.905675,-6.60584 c 3.8555191,-2.38285 2.3918574,-8.396358 -2.179422,-8.954259 -2.567769,-0.313383 -5.341842,2.104012 -5.341842,4.655008 0,3.996611 4.161768,6.375531 7.521264,4.299251 z m -12.058165,-6.585489 c 1.579128,-0.844352 2.556901,-2.539394 2.556901,-4.432575 0,-2.932232 -2.199414,-4.830575 -5.327862,-4.598541 -1.626293,0.120619 -2.048595,0.311222 -3.007247,1.357292 -1.574763,1.718363 -1.824313,3.417353 -0.800497,5.449969 1.340144,2.660634 4.04917,3.576392 6.578705,2.223855 z m 23.41058665,0 c 1.60428255,-0.8578 2.49866945,-2.442483 2.49866945,-4.427157 0,-2.700221 -2.03343406,-4.70277 -4.7752952,-4.70277 -2.7099948,0 -4.7628254,1.992622 -4.803185,4.662305 -0.041812,2.765785 2.1660247,5.118611 4.803185,5.118611 0.5825251,0 1.60700768,-0.292942 2.27662575,-0.650989 z M -11.755096,88.572225 c 2.6208457,-2.291501 1.125664,-6.551472 -2.299459,-6.551472 -0.992409,0 -1.64416,0.267288 -2.486114,1.019574 -0.979686,0.875349 -1.141101,1.250099 -1.141101,2.649249 0,1.399151 0.161415,1.773902 1.141101,2.649252 1.456521,1.301401 3.452718,1.398757 4.785573,0.233397 z M -23.20399,83.084364 c 1.563303,-0.953206 2.319279,-2.262403 2.319279,-4.016517 0,-5.519866 -7.413029,-6.952436 -9.376198,-1.811954 -1.638823,4.291198 3.125115,8.225845 7.056919,5.828471 z m 23.41058959,0 C 1.7868764,82.120806 2.4676441,80.909867 2.4676441,79.06243 c 0,-1.984675 -0.8943869,-3.569357 -2.49866945,-4.42716 -1.54557935,-0.826418 -3.00767215,-0.826418 -4.55325425,0 -3.2097662,1.716251 -3.4180409,6.287984 -0.3796426,8.333322 1.4859687,1.000298 3.6407274,1.048545 5.17052179,0.115772 z M -11.383912,76.282056 c 4.0535723,-2.656003 2.175798,-8.939424 -2.670276,-8.93529 -5.175775,0.0044 -6.687485,6.786347 -2.048264,9.189048 1.39854,0.724319 3.389193,0.617264 4.71854,-0.253758 z"
       id="path285" /><path
       style="fill:#13c6b3;fill-opacity:1;stroke:#13c6b3;stroke-width:0.349411;stroke-opacity:1"
       d="m 12.036033,116.87458 c -0.07423,-0.24022 -0.216826,-1.14433 -0.316873,-2.00912 -0.138864,-1.20036 -0.44868,-1.81074 -1.309534,-2.57998 l -1.127633,-1.00762 -3.8730581,0.22464 c -2.1301815,0.12355 -5.91711512,0.30599 -8.4154115,0.40543 l -4.5423507,0.18079 1.9439519,-0.65013 c 1.0691733,-0.35757 3.0346147,-1.25276 4.3676464,-1.98932 9.3971955,-5.19237 12.937281,-6.02906 16.967049,-4.01011 3.846176,1.92697 6.367656,6.19252 4.586938,7.75965 -1.040325,0.91555 -6.90286,4.11253 -7.54144,4.11253 -0.332372,0 -0.665051,-0.19654 -0.739285,-0.43676 z"
       id="path287" /></g></svg>
